<?xml version="1.0" encoding="utf-8"?>
<!-- Generator: Adobe Illustrator 19.1.0, SVG Export Plug-In . SVG Version: 6.00 Build 0)  -->
<svg version="1.1" id="Layer_1" xmlns="http://www.w3.org/2000/svg" xmlns:xlink="http://www.w3.org/1999/xlink" x="0px" y="0px"
	 viewBox="0 0 96 29.7" style="enable-background:new 0 0 96 29.7;" xml:space="preserve">
<style type="text/css">
	.st0{fill:#FFFFFF;stroke:#FFFFFF;}
	.st1{fill:#FFFFFF;stroke:#FFFFFF;stroke-width:2;stroke-miterlimit:10;}
</style>
<g>
	<path class="st0" d="M4.6,15.9c0-1.8,0.2-3.1,0.5-3.9c0.3-0.8,0.8-1.5,1.3-1.9s1.3-0.7,2.1-0.7c0.7,0,1.3,0.1,1.7,0.4
		c0.4,0.3,0.8,0.7,1.2,1.2c0.4,0.5,0.6,1.1,0.8,1.9s0.3,1.8,0.3,3c0,2.6-0.4,4.3-1.1,5.3s-1.7,1.5-2.9,1.5c-1.2,0-2.1-0.5-2.8-1.5
		C4.9,20.1,4.6,18.3,4.6,15.9z M7.1,15.1v0.8c0,1.3,0,2.2,0.1,2.6c0.1,0.4,0.2,0.8,0.5,1C7.9,19.8,8.2,20,8.6,20
		c0.3,0,0.5-0.1,0.8-0.4s0.4-0.6,0.5-1.1C9.9,18,10,17.2,10,15.9c0-1.1,0-1.9-0.1-2.4s-0.2-0.9-0.5-1.1S8.8,12,8.5,12
		c-0.5,0-0.9,0.3-1.1,0.8S7.1,14,7.1,15.1z"/>
	<path class="st0" d="M19,14l-2.5,6.2h2.3v2.2h-5.2v-0.5l2.5-6.1h-2.3v-2.2H19V14z"/>
	<path class="st0" d="M24.4,9.6h3.1c2.4,0,3.6,1.3,3.6,4c0,1.2-0.3,2.1-0.9,2.8c-0.6,0.6-1.5,1-2.6,1h-0.7v5h-2.4V9.6z M26.7,15.3
		h0.5c0.4,0,0.7-0.2,1-0.5s0.3-0.8,0.3-1.3c0-1.3-0.4-1.9-1.3-1.9h-0.5V15.3z"/>
	<path class="st0" d="M38.4,19.2c0,1-0.3,1.9-0.8,2.5c-0.5,0.6-1.3,0.9-2.2,0.9c-1,0-1.7-0.3-2.3-0.9c-0.5-0.6-0.8-1.5-0.8-2.6v-5.4
		h2.2v5.6c0,0.9,0.3,1.4,0.9,1.4c0.6,0,0.8-0.4,0.8-1.3v-5.6h2.1V19.2z"/>
	<path class="st0" d="M42.4,15.1c0.2-0.6,0.4-1.1,0.7-1.4s0.6-0.4,1.1-0.4c1.5,0,2.2,1.6,2.2,4.8c0,1.7-0.2,2.8-0.7,3.4
		s-0.9,0.9-1.5,0.9c-0.8,0-1.4-0.5-1.8-1.6h0v1.4h-2.1V8.7h2.1L42.4,15.1L42.4,15.1z M43.3,20.3c0.6,0,0.9-0.8,0.9-2.4
		c0-1.6-0.3-2.3-0.9-2.3c-0.6,0-0.9,0.9-0.9,2.6C42.4,19.6,42.7,20.3,43.3,20.3z"/>
	<path class="st0" d="M53,13.2c-0.6-0.8-1.2-1.3-1.8-1.3c-0.3,0-0.5,0.1-0.7,0.3c-0.2,0.2-0.3,0.4-0.3,0.7c0,0.4,0.3,1,1,1.6
		c0.7,0.6,1.1,1.1,1.4,1.5c0.3,0.4,0.5,0.8,0.7,1.3c0.2,0.5,0.3,1,0.3,1.6c0,1.1-0.3,2-0.9,2.8c-0.6,0.7-1.4,1.1-2.4,1.1
		c-0.8,0-1.6-0.3-2.3-1v-3c0.7,0.9,1.5,1.4,2.2,1.4c0.3,0,0.6-0.1,0.8-0.3s0.3-0.5,0.3-0.8c0-0.5-0.3-1-0.8-1.5
		c-0.9-0.9-1.5-1.6-1.8-2c-0.3-0.4-0.5-0.9-0.6-1.3s-0.2-0.9-0.2-1.3c0-1,0.3-1.8,0.9-2.4c0.6-0.6,1.3-1,2.3-1
		c0.7,0,1.4,0.2,2.1,0.7V13.2z"/>
	<path class="st0" d="M57.2,15c0.4-1.1,1-1.6,1.7-1.6c0.6,0,1.1,0.3,1.6,1s0.6,1.9,0.6,3.6c0,1.8-0.2,3.1-0.7,3.7
		c-0.4,0.7-1,1-1.6,1c-0.7,0-1.3-0.6-1.7-1.7l0-0.1h0v5.3H55V13.6h2.2L57.2,15L57.2,15z M58.1,20.3c0.3,0,0.5-0.2,0.6-0.6
		s0.2-1,0.2-1.9c0-1.5-0.3-2.2-0.8-2.2c-0.3,0-0.6,0.2-0.7,0.6c-0.1,0.4-0.2,1-0.2,1.8C57.2,19.6,57.5,20.3,58.1,20.3z"/>
	<path class="st0" d="M68.5,18.5h-3.8c0,0.9,0.1,1.6,0.3,1.9s0.4,0.4,0.8,0.4c0.5,0,0.7-0.3,0.8-1h1.9c-0.1,0.9-0.4,1.6-0.8,2.1
		c-0.5,0.5-1.1,0.7-1.9,0.7c-1,0-1.8-0.4-2.3-1.2c-0.5-0.8-0.8-2-0.8-3.5c0-1.4,0.3-2.5,0.9-3.3c0.6-0.8,1.4-1.3,2.3-1.3
		c0.7,0,1.2,0.2,1.7,0.7c0.5,0.5,0.8,1,0.9,1.7S68.5,17.3,68.5,18.5z M66.5,17.1c0-0.7-0.1-1.3-0.2-1.6c-0.1-0.4-0.3-0.5-0.6-0.5
		c-0.3,0-0.6,0.2-0.7,0.5c-0.1,0.4-0.2,0.9-0.2,1.6H66.5z"/>
	<path class="st0" d="M74,15.8c-0.3-0.3-0.6-0.4-0.9-0.4c-0.7,0-1.1,0.8-1.1,2.5c0,1.7,0.4,2.6,1.1,2.6c0.3,0,0.6-0.1,0.9-0.4v2.1
		c-0.6,0.3-1.1,0.4-1.5,0.4c-0.8,0-1.5-0.4-2-1.2c-0.5-0.8-0.7-1.8-0.7-3.2c0-1.9,0.3-3.1,0.8-3.8c0.5-0.7,1.2-1.1,2-1.1
		c0.5,0,1,0.1,1.5,0.4V15.8z"/>
	<path class="st0" d="M75.3,10.7c0-0.4,0.1-0.7,0.4-1s0.6-0.4,0.9-0.4s0.7,0.1,0.9,0.4c0.2,0.3,0.4,0.6,0.4,1c0,0.4-0.1,0.8-0.4,1
		s-0.5,0.4-0.9,0.4s-0.7-0.1-0.9-0.4S75.3,11.1,75.3,10.7z M75.5,13.6h2.1v8.7h-2.1V13.6z"/>
	<path class="st0" d="M85.4,22.3h-2.1v-1.5h0c-0.4,1.2-0.9,1.7-1.8,1.7c-0.6,0-1.1-0.3-1.5-1s-0.7-1.8-0.7-3.5
		c0-3.1,0.7-4.7,2.2-4.7c0.8,0,1.4,0.6,1.7,1.8h0v-1.6h2.2V22.3z M82.2,15.5c-0.5,0-0.8,0.7-0.8,2.2c0,0.9,0.1,1.5,0.2,1.9
		c0.1,0.4,0.4,0.6,0.7,0.6c0.3,0,0.5-0.2,0.7-0.6c0.1-0.4,0.2-1,0.2-1.8c0-0.9-0.1-1.5-0.2-1.9C82.9,15.7,82.6,15.5,82.2,15.5
		L82.2,15.5z"/>
	<path class="st0" d="M89.4,22.3h-2.2V8.7h2.2V22.3z"/>
	<path class="st0" d="M95.1,16c-0.6-0.5-1.1-0.8-1.4-0.8c-0.4,0-0.6,0.2-0.6,0.6c0,0.2,0.3,0.6,1,1c0.7,0.4,1.2,0.9,1.5,1.4
		c0.3,0.5,0.5,1.1,0.5,1.8c0,0.8-0.2,1.4-0.7,1.9s-1.1,0.8-1.8,0.8c-0.5,0-1-0.1-1.3-0.2c-0.4-0.2-0.8-0.4-1.2-0.8l0.9-1.8
		c0.1,0,0.1,0.1,0.2,0.2c0.5,0.5,1,0.7,1.3,0.7c0.2,0,0.4-0.1,0.5-0.2C94,20.3,94,20.2,94,20c0-0.2-0.1-0.4-0.3-0.5
		s-0.6-0.5-1.1-0.9s-0.9-0.8-1.2-1.1s-0.4-0.8-0.4-1.4c0-0.8,0.2-1.5,0.7-2c0.5-0.5,1.1-0.8,1.8-0.8c0.8,0,1.6,0.3,2.4,1L95.1,16z"
		/>
</g>
<path class="st1" d="M17.2,27.4H6c-2.2,0-4-1.8-4-4V7.3c0-2.2,1.8-4,4-4h11.2c2.2,0,4,1.8,4,4v16.1C21.2,25.6,19.4,27.4,17.2,27.4z"
	/>
</svg>
