<?xml version="1.0" encoding="UTF-8" standalone="no"?>
<!-- Created with Inkscape (http://www.inkscape.org/) -->

<svg
   xmlns:dc="http://purl.org/dc/elements/1.1/"
   xmlns:cc="http://creativecommons.org/ns#"
   xmlns:rdf="http://www.w3.org/1999/02/22-rdf-syntax-ns#"
   xmlns:svg="http://www.w3.org/2000/svg"
   xmlns="http://www.w3.org/2000/svg"
   xmlns:sodipodi="http://sodipodi.sourceforge.net/DTD/sodipodi-0.dtd"
   xmlns:inkscape="http://www.inkscape.org/namespaces/inkscape"
   width="113.77843mm"
   height="115.40569mm"
   viewBox="0 0 113.77842 115.40568"
   version="1.1"
   id="svg3876"
   inkscape:version="0.92.3 (2405546, 2018-03-11)"
   sodipodi:docname="pubspecials.svg">
  <defs
     id="defs3870" />
  <sodipodi:namedview
     id="base"
     pagecolor="#ffffff"
     bordercolor="#666666"
     borderopacity="1.0"
     inkscape:pageopacity="0.0"
     inkscape:pageshadow="2"
     inkscape:zoom="1"
     inkscape:cx="218.36453"
     inkscape:cy="186.79368"
     inkscape:document-units="mm"
     inkscape:current-layer="layer1"
     showgrid="false"
     inkscape:window-width="1280"
     inkscape:window-height="736"
     inkscape:window-x="0"
     inkscape:window-y="27"
     inkscape:window-maximized="1"
     showguides="true"
     inkscape:guide-bbox="true">
    <sodipodi:guide
       position="46.579959,71.868604"
       orientation="0,1"
       id="guide4763"
       inkscape:locked="false" />
    <sodipodi:guide
       position="6.7568006,77.748536"
       orientation="1,0"
       id="guide4819"
       inkscape:locked="false" />
    <sodipodi:guide
       position="106.98287,85.499352"
       orientation="1,0"
       id="guide4821"
       inkscape:locked="false" />
    <sodipodi:guide
       position="57.003471,63.04871"
       orientation="1,0"
       id="guide4823"
       inkscape:locked="false" />
    <sodipodi:guide
       position="31.345596,81.490309"
       orientation="1,0"
       id="guide4825"
       inkscape:locked="false" />
    <sodipodi:guide
       position="82.394075,55.297894"
       orientation="1,0"
       id="guide4827"
       inkscape:locked="false" />
    <sodipodi:guide
       position="95.223012,80.421228"
       orientation="0,1"
       id="guide4894"
       inkscape:locked="false" />
  </sodipodi:namedview>
  <metadata
     id="metadata3873">
    <rdf:RDF>
      <cc:Work
         rdf:about="">
        <dc:format>image/svg+xml</dc:format>
        <dc:type
           rdf:resource="http://purl.org/dc/dcmitype/StillImage" />
        <dc:title />
      </cc:Work>
    </rdf:RDF>
  </metadata>
  <g
     inkscape:label="Layer 1"
     inkscape:groupmode="layer"
     id="layer1"
     transform="translate(-7.3390234,-30.490917)">
    <path
       style="opacity:1;vector-effect:none;fill:#ffffff;fill-opacity:1;stroke:#550000;stroke-width:0.80000001;stroke-linecap:butt;stroke-linejoin:miter;stroke-miterlimit:4;stroke-dasharray:none;stroke-dashoffset:0;stroke-opacity:1"
       d="m 17.063815,73.504661 h 94.290095 l -9.50756,71.275689 -72.306986,-0.52333 z"
       id="rect4964"
       inkscape:connector-curvature="0"
       sodipodi:nodetypes="ccccc" />
    <path
       inkscape:connector-curvature="0"
       style="opacity:1;vector-effect:none;fill:#a02c2c;fill-opacity:1;stroke:none;stroke-width:0.09722865;stroke-linecap:butt;stroke-linejoin:miter;stroke-miterlimit:4;stroke-dasharray:none;stroke-dashoffset:0;stroke-opacity:1"
       d="m 14.095824,74.027998 2.967991,-0.523337 12.475549,70.752359 -2.967991,0.52333 z"
       id="rect3932-9-8" />
    <path
       inkscape:connector-curvature="0"
       id="path4883"
       style="font-style:normal;font-variant:normal;font-weight:bold;font-stretch:normal;font-size:21.98181915px;line-height:1.25;font-family:'DejaVu Sans';-inkscape-font-specification:'DejaVu Sans Bold';letter-spacing:0px;word-spacing:0px;fill:#000000;fill-opacity:1;stroke:none;stroke-width:0.51519889"
       d="m 26.601785,76.596619 h 8.723343 q 3.890693,0 5.96573,2.411414 2.088688,2.392425 2.088688,6.835498 0,4.462064 -2.088688,6.873474 -2.075037,2.392427 -5.96573,2.392427 h -3.467494 v 9.835518 h -5.255849 z m 5.255849,5.297514 v 7.917786 h 2.90778 q 1.528975,0 2.36172,-1.025325 0.832744,-1.044313 0.832744,-2.943063 0,-1.898749 -0.832744,-2.924074 -0.832745,-1.025324 -2.36172,-1.025324 z" />
    <path
       inkscape:connector-curvature="0"
       id="path4885"
       style="font-style:normal;font-variant:normal;font-weight:bold;font-stretch:normal;font-size:21.98181915px;line-height:1.25;font-family:'DejaVu Sans';-inkscape-font-specification:'DejaVu Sans Bold';letter-spacing:0px;word-spacing:0px;fill:#000000;fill-opacity:1;stroke:none;stroke-width:0.51519889"
       d="m 55.141847,76.596619 h 5.255849 v 16.993812 q 0,3.512688 0.819093,5.031687 0.832746,1.500012 2.703007,1.500012 1.883916,0 2.703009,-1.500012 0.832745,-1.518999 0.832745,-5.031687 V 76.596619 h 5.255848 v 16.993812 q 0,6.019042 -2.170596,8.962099 -2.170599,2.94305 -6.621006,2.94305 -4.436755,0 -6.607351,-2.94305 -2.170598,-2.943057 -2.170598,-8.962099 z" />
    <path
       inkscape:connector-curvature="0"
       id="path4887"
       style="font-style:normal;font-variant:normal;font-weight:bold;font-stretch:normal;font-size:21.98181915px;line-height:1.25;font-family:'DejaVu Sans';-inkscape-font-specification:'DejaVu Sans Bold';letter-spacing:0px;word-spacing:0px;fill:#000000;fill-opacity:1;stroke:none;stroke-width:0.51519889"
       d="m 95.142723,87.571393 q 1.24229,0 1.88391,-0.759499 0.64163,-0.759498 0.64163,-2.240525 0,-1.462036 -0.64163,-2.221537 -0.64162,-0.778488 -1.88391,-0.778488 h -2.907787 v 6.000049 z m 0.17747,12.39884 q 1.58357,0 2.37537,-0.930389 0.80544,-0.930387 0.80544,-2.810149 0,-1.841789 -0.79179,-2.753189 -0.79179,-0.930387 -2.38902,-0.930387 h -3.085257 v 7.424114 z m 4.887237,-10.196289 q 1.6928,0.683551 2.6211,2.525338 0.92831,1.841787 0.92831,4.519023 0,4.101295 -1.99314,6.113975 -1.993107,2.01267 -6.061267,2.01267 H 86.979099 V 76.596619 h 7.890594 q 4.24562,0 6.143187,1.784825 1.9112,1.784824 1.9112,5.715238 0,2.069637 -0.69622,3.531674 -0.69623,1.443051 -2.02043,2.145588 z" />
    <path
       inkscape:connector-curvature="0"
       style="opacity:1;vector-effect:none;fill:#a02c2c;fill-opacity:1;stroke:none;stroke-width:0.09722865;stroke-linecap:butt;stroke-linejoin:miter;stroke-miterlimit:4;stroke-dasharray:none;stroke-dashoffset:0;stroke-opacity:1"
       d="m 80.558178,73.76533 3.002309,0.262668 -6.261602,71.570432 -3.002308,-0.26267 z"
       id="rect3932-9" />
    <path
       inkscape:connector-curvature="0"
       style="opacity:1;vector-effect:none;fill:#a02c2c;fill-opacity:1;stroke:none;stroke-width:0.09722865;stroke-linecap:butt;stroke-linejoin:miter;stroke-miterlimit:4;stroke-dasharray:none;stroke-dashoffset:0;stroke-opacity:1"
       d="m 111.35391,73.504661 2.96799,0.523337 -12.47555,70.752352 -2.967993,-0.52333 z"
       id="rect3932-9-84" />
    <text
       xml:space="preserve"
       style="font-style:normal;font-weight:normal;font-size:10.58333302px;line-height:1.25;font-family:sans-serif;letter-spacing:0px;word-spacing:0px;fill:#000000;fill-opacity:1;stroke:none;stroke-width:0.26458332"
       x="56.324409"
       y="89.529633"
       id="text4802"><tspan
         sodipodi:role="line"
         id="tspan4800"
         x="56.324409"
         y="89.529633"
         style="stroke-width:0.26458332"> </tspan></text>
    <path
       inkscape:connector-curvature="0"
       style="opacity:1;vector-effect:none;fill:#a02c2c;fill-opacity:1;stroke:none;stroke-width:0.09722865;stroke-linecap:butt;stroke-linejoin:miter;stroke-miterlimit:4;stroke-dasharray:none;stroke-dashoffset:0;stroke-opacity:1"
       d="m 45.099091,74.290666 3.002309,-0.262668 6.261601,71.570432 -3.002308,0.26267 z"
       id="rect3932-9-3" />
    <path
       style="opacity:1;vector-effect:none;fill:#ffffff;fill-opacity:1;stroke:#a02c2c;stroke-width:2.48255587;stroke-linecap:butt;stroke-linejoin:miter;stroke-miterlimit:4;stroke-dasharray:none;stroke-dashoffset:0;stroke-opacity:1"
       d="M 14.168448,107.97039 H 114.24927 v 20.96662 H 14.168448 Z"
       id="rect3932"
       inkscape:connector-curvature="0" />
    <path
       style="font-style:normal;font-weight:normal;font-size:10.58333302px;line-height:1.25;font-family:sans-serif;letter-spacing:0px;word-spacing:0px;fill:#000000;fill-opacity:1;stroke:none;stroke-width:0.26458332"
       d="m 27.85133,112.81087 c 0.0953,1.76282 0.302412,3.46254 -1.984375,1.9265 -2.696725,-1.65675 -6.033239,2.09885 -1.83015,2.41273 2.520912,0.1206 5.368849,1.88335 4.548847,4.77752 -0.600903,3.52949 -5.101918,3.38798 -7.782987,2.73059 -2.276408,0.20381 -1.7455,-1.74547 -1.773535,-3.22358 1.63487,1.21475 7.391281,2.50718 6.184635,-0.96738 -2.128938,-1.10428 -5.735935,-0.67213 -6.238896,-3.74189 -0.770484,-3.24294 2.819329,-5.12408 5.591907,-4.48707 1.109541,0.0875 2.209609,0.28548 3.284554,0.57258 z m 3.613216,-0.38861 c 2.732009,0.15393 5.597791,-0.42446 8.199499,0.59066 3.194283,1.50384 2.311251,7.04977 -1.303409,7.32436 -0.969695,0.73959 -3.811841,-0.74777 -3.712822,0.8623 0,1.18905 0,2.3781 0,3.56715 -1.000081,-0.12066 -2.482141,0.24066 -3.183268,-0.17895 0,-4.05517 0,-8.11035 0,-12.16552 z m 3.183268,2.30684 c 0,1.14928 0,2.29856 0,3.44785 1.885641,0.44024 4.968154,-0.76188 3.191536,-3.00137 -0.91785,-0.70183 -2.12851,-0.36711 -3.191536,-0.44648 z m 9.219075,-2.30684 c 2.863563,0 5.727126,0 8.59069,0 -0.216692,0.88357 0.637739,2.83827 -0.894742,2.40606 -1.504227,0 -3.008453,0 -4.51268,0 0.132491,0.99159 -0.550129,2.7983 1.073689,2.29856 1.337091,0 2.674181,0 4.011272,0 -0.216692,0.88358 0.637739,2.83827 -0.894742,2.40606 -1.396739,0 -2.793479,0 -4.190219,0 0.264773,0.85675 -0.586114,2.82916 0.536845,2.82773 1.684159,0 3.368318,0 5.052478,0 -0.216692,0.88358 0.637739,2.83827 -0.894742,2.40606 -2.62595,0 -5.251899,0 -7.877849,0 0,-4.11483 0,-8.22965 0,-12.34447 z m 21.365104,11.66647 c -3.523727,1.93141 -9.165103,0.90339 -10.247177,-3.4401 -1.113484,-3.55543 0.994603,-8.00228 4.973598,-8.34161 1.784762,-0.12748 5.82032,-0.44542 5.273579,2.24136 0.344886,2.53707 -3.456382,-1.52515 -5.076692,0.23033 -3.477899,1.49692 -2.63294,8.17576 1.521354,7.92096 1.96405,0.17833 4.220613,-2.35421 3.555338,0.80261 0,0.19548 0,0.39097 0,0.58645 z m 2.645834,-11.66647 c 1.000082,0.12066 2.482142,-0.24066 3.183269,0.17895 0,4.05517 0,8.11034 0,12.16552 -1.000082,-0.12066 -2.482142,0.24066 -3.183269,-0.17895 0,-4.05517 0,-8.11035 0,-12.16552 z m 13.807941,10.09551 c -1.659158,0 -3.318316,0 -4.977474,0 -0.504827,0.82747 -0.293144,2.66414 -1.680223,2.24896 -0.946455,-0.12514 -2.995294,0.51698 -1.932133,-1.00685 1.3998,-3.7792 2.7996,-7.55841 4.1994,-11.33762 1.265039,0 2.530078,0 3.795117,0 1.52411,4.11482 3.048221,8.22964 4.572331,12.34447 -1.046125,-0.11247 -2.412988,0.22526 -3.258255,-0.16914 -0.239588,-0.69327 -0.479176,-1.38655 -0.718763,-2.07982 z m -4.183724,-2.2903 c 1.127235,0 2.25447,0 3.381706,0 -0.56224,-1.63711 -1.12448,-3.27422 -1.686719,-4.91133 -0.564996,1.63711 -1.129991,3.27422 -1.694987,4.91133 z m 9.789587,-7.80521 c 1.000081,0.12066 2.482141,-0.24066 3.183268,0.17895 0,3.25315 0,6.50631 0,9.75946 1.863107,0 3.726215,0 5.589322,0 -0.216692,0.88358 0.63774,2.83827 -0.894741,2.40606 -2.62595,0 -5.2519,0 -7.877849,0 0,-4.11483 0,-8.22965 0,-12.34447 z m 19.372459,0.38861 c 0.0953,1.76282 0.30241,3.46254 -1.98438,1.9265 -2.69672,-1.65675 -6.033235,2.09885 -1.83015,2.41273 2.52092,0.1206 5.36885,1.88335 4.54885,4.77752 -0.6009,3.52949 -5.10192,3.38798 -7.782986,2.73059 -2.276408,0.20381 -1.745499,-1.74547 -1.773535,-3.22358 1.63487,1.21475 7.391281,2.50718 6.184631,-0.96738 -2.12893,-1.10428 -5.735931,-0.67213 -6.238891,-3.74189 -0.770484,-3.24294 2.819331,-5.12408 5.591911,-4.48707 1.10954,0.0875 2.2096,0.28548 3.28455,0.57258 z"
       id="text3912-4"
       inkscape:connector-curvature="0" />
    <rect
       style="opacity:1;vector-effect:none;fill:#a02c2c;fill-opacity:1;stroke:none;stroke-width:0.06503996;stroke-linecap:butt;stroke-linejoin:miter;stroke-miterlimit:4;stroke-dasharray:none;stroke-dashoffset:0;stroke-opacity:1"
       id="rect4829"
       width="114.09588"
       height="2.6726949"
       x="7.3269825"
       y="143.22391" />
    <path
       transform="matrix(1,0,-0.5,0.8660254,0,0)"
       style="opacity:1;vector-effect:none;fill:#a02c2c;fill-opacity:1;stroke:#550000;stroke-width:0.85965595;stroke-linecap:butt;stroke-linejoin:miter;stroke-miterlimit:4;stroke-dasharray:none;stroke-dashoffset:0;stroke-opacity:1"
       d="M 48.975109,75.60445 H 154.94747 l 2.11451,9.875719 H 56.835915 Z"
       id="rect4863"
       inkscape:connector-curvature="0"
       sodipodi:nodetypes="ccccc" />
    <path
       style="opacity:1;vector-effect:none;fill:#a02c2c;fill-opacity:1;stroke:#550000;stroke-width:0.8;stroke-linecap:butt;stroke-linejoin:miter;stroke-miterlimit:4;stroke-dasharray:none;stroke-dashoffset:0;stroke-opacity:1"
       d="m 21.323823,31.917904 43.018675,4.263322 42.522632,-4.931496 13.22984,34.225644 H 8.3612509 Z"
       id="rect4890"
       inkscape:connector-curvature="0"
       sodipodi:nodetypes="cccccc" />
  </g>
</svg>
